<svg width="25" height="24" viewBox="0 0 25 24" fill="none" xmlns="http://www.w3.org/2000/svg">
<g clip-path="url(#clip0_200_834)">
<path d="M18.6103 22.5C18.4525 22.5006 18.2984 22.4514 18.1702 22.3594L12.1416 17.9887L6.11299 22.3594C5.98419 22.4528 5.82902 22.5028 5.66992 22.5022C5.51081 22.5017 5.35601 22.4505 5.2279 22.3561C5.09978 22.2618 5.00499 22.1291 4.95723 21.9774C4.90947 21.8256 4.91121 21.6626 4.96221 21.5119L7.31346 14.5476L1.21971 10.3687C1.08771 10.2783 0.988092 10.1481 0.935399 9.99699C0.882705 9.84593 0.879701 9.68197 0.926827 9.52907C0.973952 9.37618 1.06874 9.24236 1.19733 9.14717C1.32593 9.05198 1.48159 9.0004 1.64158 8.99998H9.1594L11.4281 2.01795C11.477 1.86721 11.5724 1.73583 11.7006 1.64264C11.8287 1.54946 11.9831 1.49927 12.1416 1.49927C12.3 1.49927 12.4544 1.54946 12.5826 1.64264C12.7108 1.73583 12.8061 1.86721 12.855 2.01795L15.1238 9.00233H22.6416C22.8018 9.00225 22.9578 9.05346 23.0868 9.14847C23.2157 9.24348 23.3109 9.37729 23.3583 9.5303C23.4058 9.68331 23.4029 9.84749 23.3503 9.99878C23.2977 10.1501 23.198 10.2805 23.0658 10.3711L16.9697 14.5476L19.3196 21.51C19.3576 21.6227 19.3683 21.7429 19.3508 21.8605C19.3333 21.9782 19.288 22.09 19.2187 22.1868C19.1494 22.2835 19.0581 22.3623 18.9523 22.4168C18.8465 22.4713 18.7293 22.4998 18.6103 22.5Z" fill="#FFC107"/>
</g>
<defs>
<clipPath id="clip0_200_834">
<rect width="24" height="24" fill="white" transform="translate(0.141602)"/>
</clipPath>
</defs>
</svg>
