<svg width="25" height="25" viewBox="0 0 25 25" fill="none" xmlns="http://www.w3.org/2000/svg">
<g clip-path="url(#clip0_200_991)">
<path d="M19.3276 23C19.1698 23.0006 19.0157 22.9514 18.8875 22.8594L12.8589 18.4887L6.83028 22.8594C6.70148 22.9528 6.54631 23.0028 6.3872 23.0022C6.2281 23.0017 6.0733 22.9505 5.94518 22.8561C5.81707 22.7618 5.72228 22.6291 5.67452 22.4774C5.62676 22.3256 5.6285 22.1626 5.67949 22.0119L8.03074 15.0476L1.93699 10.8687C1.805 10.7783 1.70538 10.6481 1.65268 10.497C1.59999 10.3459 1.59699 10.182 1.64411 10.0291C1.69124 9.87618 1.78602 9.74236 1.91462 9.64717C2.04321 9.55198 2.19888 9.5004 2.35887 9.49998H9.87668L12.1454 2.51795C12.1943 2.36721 12.2897 2.23583 12.4178 2.14264C12.546 2.04946 12.7004 1.99927 12.8589 1.99927C13.0173 1.99927 13.1717 2.04946 13.2999 2.14264C13.4281 2.23583 13.5234 2.36721 13.5723 2.51795L15.8411 9.50233H23.3589C23.5191 9.50225 23.6751 9.55346 23.8041 9.64847C23.933 9.74348 24.0282 9.87729 24.0756 10.0303C24.123 10.1833 24.1202 10.3475 24.0676 10.4988C24.0149 10.6501 23.9152 10.7805 23.7831 10.8711L17.687 15.0476L20.0368 22.01C20.0749 22.1227 20.0856 22.2429 20.0681 22.3605C20.0505 22.4782 20.0053 22.59 19.936 22.6868C19.8667 22.7835 19.7754 22.8623 19.6696 22.9168C19.5638 22.9713 19.4466 22.9998 19.3276 23Z" fill="#FFC107"/>
</g>
<defs>
<clipPath id="clip0_200_991">
<rect width="24" height="24" fill="white" transform="translate(0.858887 0.5)"/>
</clipPath>
</defs>
</svg>
