<svg width="25" height="24" viewBox="0 0 25 24" fill="none" xmlns="http://www.w3.org/2000/svg">
<path d="M19.1582 22.5C19.0003 22.5006 18.8463 22.4514 18.718 22.3594L12.6894 17.9887L6.66084 22.3594C6.53204 22.4528 6.37688 22.5028 6.21777 22.5022C6.05866 22.5017 5.90386 22.4505 5.77575 22.3561C5.64763 22.2618 5.55284 22.1291 5.50508 21.9774C5.45732 21.8256 5.45906 21.6626 5.51006 21.5119L7.86131 14.5476L1.76756 10.3687C1.63557 10.2783 1.53594 10.1481 1.48325 9.99699C1.43056 9.84593 1.42755 9.68197 1.47468 9.52907C1.5218 9.37618 1.61659 9.24236 1.74518 9.14717C1.87378 9.05198 2.02944 9.0004 2.18944 8.99998H9.70725L11.976 2.01795C12.0249 1.86721 12.1202 1.73583 12.2484 1.64264C12.3766 1.54946 12.531 1.49927 12.6894 1.49927C12.8479 1.49927 13.0023 1.54946 13.1305 1.64264C13.2586 1.73583 13.354 1.86721 13.4029 2.01795L15.6716 9.00233H23.1894C23.3496 9.00225 23.5056 9.05346 23.6346 9.14847C23.7636 9.24348 23.8588 9.37729 23.9062 9.5303C23.9536 9.68331 23.9508 9.84749 23.8982 9.99878C23.8455 10.1501 23.7458 10.2805 23.6137 10.3711L17.5176 14.5476L19.8674 21.51C19.9055 21.6227 19.9162 21.7429 19.8986 21.8605C19.8811 21.9782 19.8358 22.09 19.7665 22.1868C19.6972 22.2835 19.6059 22.3623 19.5002 22.4168C19.3944 22.4713 19.2772 22.4998 19.1582 22.5Z" fill="#FFC107"/>
</svg>
