<svg width="25" height="24" viewBox="0 0 25 24" fill="none" xmlns="http://www.w3.org/2000/svg">
<path d="M18.7825 22.5C18.6246 22.5006 18.4706 22.4514 18.3423 22.3594L12.3137 17.9887L6.28511 22.3594C6.15631 22.4528 6.00114 22.5028 5.84204 22.5022C5.68293 22.5017 5.52813 22.4505 5.40001 22.3561C5.2719 22.2618 5.17711 22.1291 5.12935 21.9774C5.08159 21.8256 5.08333 21.6626 5.13433 21.5119L7.48558 14.5476L1.39183 10.3687C1.25983 10.2783 1.16021 10.1481 1.10752 9.99699C1.05482 9.84593 1.05182 9.68197 1.09895 9.52907C1.14607 9.37618 1.24086 9.24236 1.36945 9.14717C1.49804 9.05198 1.65371 9.0004 1.8137 8.99998H9.33152L11.6003 2.01795C11.6491 1.86721 11.7445 1.73583 11.8727 1.64264C12.0008 1.54946 12.1552 1.49927 12.3137 1.49927C12.4722 1.49927 12.6266 1.54946 12.7547 1.64264C12.8829 1.73583 12.9783 1.86721 13.0271 2.01795L15.2959 9.00233H22.8137C22.9739 9.00225 23.1299 9.05346 23.2589 9.14847C23.3879 9.24348 23.483 9.37729 23.5305 9.5303C23.5779 9.68331 23.5751 9.84749 23.5224 9.99878C23.4698 10.1501 23.3701 10.2805 23.2379 10.3711L17.1418 14.5476L19.4917 21.51C19.5297 21.6227 19.5405 21.7429 19.5229 21.8605C19.5054 21.9782 19.4601 22.09 19.3908 22.1868C19.3215 22.2835 19.2302 22.3623 19.1244 22.4168C19.0187 22.4713 18.9014 22.4998 18.7825 22.5Z" fill="#FFC107"/>
</svg>
