<svg width="25" height="25" viewBox="0 0 25 25" fill="none" xmlns="http://www.w3.org/2000/svg">
<g clip-path="url(#clip0_200_896)">
<path d="M19.3686 23C19.2108 23.0006 19.0567 22.9514 18.9285 22.8594L12.8999 18.4887L6.87129 22.8594C6.74249 22.9528 6.58733 23.0028 6.42822 23.0022C6.26911 23.0017 6.11431 22.9505 5.9862 22.8561C5.85808 22.7618 5.76329 22.6291 5.71553 22.4774C5.66777 22.3256 5.66951 22.1626 5.72051 22.0119L8.07176 15.0476L1.97801 10.8687C1.84601 10.7783 1.74639 10.6481 1.6937 10.497C1.64101 10.3459 1.638 10.182 1.68513 10.0291C1.73225 9.87618 1.82704 9.74236 1.95563 9.64717C2.08423 9.55198 2.23989 9.5004 2.39988 9.49998H9.9177L12.1864 2.51795C12.2353 2.36721 12.3307 2.23583 12.4589 2.14264C12.587 2.04946 12.7414 1.99927 12.8999 1.99927C13.0583 1.99927 13.2127 2.04946 13.3409 2.14264C13.4691 2.23583 13.5644 2.36721 13.6133 2.51795L15.8821 9.50233H23.3999C23.5601 9.50225 23.7161 9.55346 23.8451 9.64847C23.974 9.74348 24.0692 9.87729 24.1166 10.0303C24.1641 10.1833 24.1612 10.3475 24.1086 10.4988C24.056 10.6501 23.9563 10.7805 23.8241 10.8711L17.728 15.0476L20.0779 22.01C20.1159 22.1227 20.1266 22.2429 20.1091 22.3605C20.0916 22.4782 20.0463 22.59 19.977 22.6868C19.9077 22.7835 19.8164 22.8623 19.7106 22.9168C19.6048 22.9713 19.4876 22.9998 19.3686 23Z" fill="#FFC107"/>
</g>
<defs>
<clipPath id="clip0_200_896">
<rect width="24" height="24" fill="white" transform="translate(0.899902 0.5)"/>
</clipPath>
</defs>
</svg>
