<svg width="25" height="24" viewBox="0 0 25 24" fill="none" xmlns="http://www.w3.org/2000/svg">
<path d="M19.1863 22.5C19.0284 22.5006 18.8744 22.4514 18.7461 22.3594L12.7175 17.9887L6.68892 22.3594C6.56012 22.4528 6.40495 22.5028 6.24585 22.5022C6.08674 22.5017 5.93194 22.4505 5.80382 22.3561C5.67571 22.2618 5.58092 22.1291 5.53316 21.9774C5.4854 21.8256 5.48714 21.6626 5.53814 21.5119L7.88939 14.5476L1.79564 10.3687C1.66364 10.2783 1.56402 10.1481 1.51133 9.99699C1.45863 9.84593 1.45563 9.68197 1.50275 9.52907C1.54988 9.37618 1.64466 9.24236 1.77326 9.14717C1.90185 9.05198 2.05752 9.0004 2.21751 8.99998H9.73532L12.0041 2.01795C12.0529 1.86721 12.1483 1.73583 12.2765 1.64264C12.4047 1.54946 12.559 1.49927 12.7175 1.49927C12.876 1.49927 13.0304 1.54946 13.1585 1.64264C13.2867 1.73583 13.3821 1.86721 13.4309 2.01795L15.6997 9.00233H23.2175C23.3777 9.00225 23.5337 9.05346 23.6627 9.14847C23.7917 9.24348 23.8868 9.37729 23.9343 9.5303C23.9817 9.68331 23.9789 9.84749 23.9262 9.99878C23.8736 10.1501 23.7739 10.2805 23.6417 10.3711L17.5456 14.5476L19.8955 21.51C19.9336 21.6227 19.9443 21.7429 19.9267 21.8605C19.9092 21.9782 19.8639 22.09 19.7946 22.1868C19.7253 22.2835 19.634 22.3623 19.5282 22.4168C19.4225 22.4713 19.3052 22.4998 19.1863 22.5Z" fill="#FFC107"/>
</svg>
