<svg width="16" height="13" viewBox="0 0 16 13" fill="none" xmlns="http://www.w3.org/2000/svg">
<path fill-rule="evenodd" clip-rule="evenodd" d="M8.00171 1.1674C9.06693 1.13406 10.1337 1.15728 11.1952 1.23691C11.7101 1.23165 12.2217 1.30497 12.7034 1.45308C13.3679 1.70466 13.902 2.13857 14.2116 2.67849C14.3934 3.07084 14.4828 3.48748 14.4751 3.90668C14.4751 4.55519 14.5606 4.77135 14.5606 6.50139C14.6017 7.36688 14.5731 8.23363 14.4751 9.0961C14.4816 9.5145 14.3913 9.93017 14.209 10.3215C13.8994 10.8614 13.3653 11.2953 12.7008 11.5469C12.2192 11.695 11.7076 11.7684 11.1926 11.7631C10.3945 11.7631 10.1284 11.8326 7.99914 11.8326C6.93472 11.8652 5.86882 11.8412 4.80823 11.761C4.29327 11.7663 3.78168 11.6929 3.30002 11.5448C2.63609 11.294 2.10211 10.8611 1.79182 10.3222C1.60954 9.93086 1.51929 9.51519 1.52577 9.09679C1.52577 8.44829 1.44022 8.23212 1.44022 6.50209C1.39918 5.63659 1.42776 4.76985 1.52577 3.90738C1.51929 3.48898 1.60954 3.07331 1.79182 2.68197C1.94663 2.41443 2.1567 2.1704 2.4129 1.96048C2.62093 1.70837 2.93728 1.52842 3.30002 1.45586C3.78168 1.30775 4.29327 1.23443 4.80823 1.23969C5.86972 1.16006 6.93649 1.13684 8.00171 1.17018V1.1674ZM8.00171 0.0142775C6.90799 -0.0181938 5.81283 0.00502071 4.72268 0.0837848C4.05468 0.0831615 3.39218 0.181866 2.76792 0.37502C2.2296 0.517695 1.74238 0.765143 1.34869 1.09581C0.941713 1.41568 0.637162 1.81155 0.461562 2.24894C0.181267 2.74586 0.0580619 3.29178 0.103118 3.83718C0.00617794 4.72293 -0.0223938 5.61274 0.0175709 6.50139C-0.0225369 7.39097 0.00603496 8.28171 0.103118 9.16838C0.101675 9.71002 0.22199 10.2473 0.45814 10.7538C0.63374 11.1912 0.938291 11.5871 1.34527 11.907C1.73896 12.2376 2.22618 12.4851 2.7645 12.6278C3.38791 12.8196 4.0492 12.9174 4.71583 12.9162C5.80712 12.9951 6.90343 13.0183 7.99829 12.9857C9.09315 13.0183 10.1895 12.9951 11.2807 12.9162C11.9474 12.9174 12.6087 12.8196 13.2321 12.6278C13.7674 12.4782 14.2536 12.2315 14.6539 11.9063C15.0541 11.5811 15.3578 11.186 15.5419 10.7511C15.778 10.2445 15.8983 9.70724 15.8969 9.1656C15.8969 8.44481 15.9824 8.22865 15.9824 6.49861C16.0225 5.60903 15.994 4.71829 15.8969 3.83162C15.8983 3.28998 15.778 2.75267 15.5419 2.24616C15.3663 1.80877 15.0617 1.4129 14.6547 1.09303C14.2609 0.763468 13.774 0.516997 13.2364 0.37502C12.6129 0.182116 11.9513 0.0834157 11.2842 0.0837848C10.1929 0.00490272 9.09657 -0.0183119 8.00171 0.0142775ZM8.00171 3.18589C7.46341 3.17875 6.92884 3.25963 6.42979 3.42372C5.93074 3.58782 5.47739 3.83177 5.0967 4.14107C4.71602 4.45038 4.41577 4.81872 4.21381 5.22421C4.01186 5.62969 3.91231 6.06402 3.9211 6.50139C3.9211 7.15713 4.16042 7.79815 4.60881 8.34338C5.05719 8.88861 5.69449 9.31357 6.44013 9.56451C7.18576 9.81545 8.00624 9.88111 8.7978 9.75318C9.58936 9.62525 10.3165 9.30948 10.8871 8.8458C11.4578 8.38212 11.8465 7.79136 12.0039 7.14821C12.1614 6.50507 12.0806 5.83843 11.7717 5.2326C11.4629 4.62678 10.9398 4.10897 10.2688 3.74466C9.59772 3.38034 8.80878 3.18589 8.00171 3.18589ZM8.00171 8.66376C7.65046 8.66895 7.30152 8.61656 6.97574 8.50972C6.64997 8.40289 6.35403 8.2438 6.10562 8.04197C5.8572 7.84013 5.66141 7.59968 5.52992 7.33499C5.39843 7.07029 5.33395 6.78678 5.34033 6.50139C5.33395 6.216 5.39843 5.93249 5.52992 5.66779C5.66141 5.4031 5.8572 5.16265 6.10562 4.96082C6.35403 4.75898 6.64997 4.59989 6.97574 4.49306C7.30152 4.38622 7.65046 4.33384 8.00171 4.33902C8.35296 4.33384 8.7019 4.38622 9.02768 4.49306C9.35345 4.59989 9.64939 4.75898 9.8978 4.96082C10.1462 5.16265 10.342 5.4031 10.4735 5.66779C10.605 5.93249 10.6695 6.216 10.6631 6.50139C10.6695 6.78678 10.605 7.07029 10.4735 7.33499C10.342 7.59968 10.1462 7.84013 9.8978 8.04197C9.64939 8.2438 9.35345 8.40289 9.02768 8.50972C8.7019 8.61656 8.35296 8.66895 8.00171 8.66376ZM12.2603 2.24824C12.0672 2.24824 11.8785 2.29475 11.718 2.3819C11.5575 2.46904 11.4323 2.59291 11.3585 2.73782C11.2846 2.88274 11.2653 3.0422 11.3029 3.19604C11.3406 3.34988 11.4335 3.4912 11.5701 3.60211C11.7066 3.71302 11.8805 3.78856 12.0698 3.81916C12.2592 3.84976 12.4554 3.83405 12.6338 3.77403C12.8122 3.714 12.9646 3.61235 13.0719 3.48193C13.1791 3.35151 13.2364 3.19817 13.2364 3.04132C13.2341 2.83154 13.1306 2.63087 12.948 2.48253C12.7654 2.33419 12.5184 2.25006 12.2603 2.24824Z" fill="white"/>
</svg>
