<svg width="18" height="11" viewBox="0 0 18 11" fill="none" xmlns="http://www.w3.org/2000/svg">
<path fill-rule="evenodd" clip-rule="evenodd" d="M5.70177 10.994C7.08389 11.0034 8.45465 10.8053 9.73399 10.4113C11.0133 10.0173 12.1756 9.43523 13.153 8.69917C14.1303 7.9631 14.9031 7.08775 15.4263 6.12425C15.9495 5.16074 16.2125 4.12839 16.2 3.08748V2.71063C16.8986 2.31018 17.5065 1.82711 18 1.28022C17.3295 1.49976 16.6235 1.65161 15.9002 1.73185C16.6437 1.38019 17.2074 0.849449 17.4996 0.225921C16.7772 0.52877 16.0037 0.756651 15.2002 0.903372C14.862 0.616344 14.4461 0.387215 13.9804 0.231407C13.5148 0.0755984 13.0102 -0.00327218 12.5007 0.000103988C11.5245 0.0118879 10.5926 0.3092 9.9022 0.829152C9.21181 1.3491 8.81704 2.05092 8.80139 2.78615C8.77743 2.9899 8.81028 3.19517 8.89781 3.38881C7.42666 3.33529 5.98768 3.04562 4.67726 2.5392C3.36685 2.03279 2.21526 1.32132 1.29962 0.452464C0.97051 0.888387 0.798041 1.38142 0.799249 1.88288C0.812446 2.33799 0.963382 2.78484 1.24056 3.18938C1.51774 3.59392 1.91384 3.94548 2.39871 4.21729C1.79768 4.20795 1.21087 4.07785 0.698981 3.84044C0.698005 4.48532 0.997771 5.10997 1.54596 5.60537C2.09414 6.10077 2.85593 6.43544 3.69834 6.55097C3.37258 6.61615 3.03484 6.64067 2.69855 6.62358C2.46106 6.63653 2.22261 6.61179 1.99861 6.55097C2.24257 7.10955 2.70974 7.5977 3.33621 7.94863C3.96268 8.29957 4.71784 8.49614 5.49834 8.51144C4.18413 9.28449 2.56704 9.70807 0.899517 9.71604C0.596419 9.72915 0.292523 9.70462 0 9.64343C1.65445 10.5484 3.65441 11.0241 5.69887 10.9991" fill="white"/>
</svg>
