<svg width="41" height="41" viewBox="0 0 41 41" fill="none" xmlns="http://www.w3.org/2000/svg">
<path d="M35.9973 35.5H4.56522C4.1863 35.5 3.82289 35.6317 3.55496 35.8661C3.28702 36.1005 3.13649 36.4185 3.13649 36.75V39.25C3.13649 39.5815 3.28702 39.8995 3.55496 40.1339C3.82289 40.3683 4.1863 40.5 4.56522 40.5H35.9973C36.3762 40.5 36.7396 40.3683 37.0075 40.1339C37.2755 39.8995 37.426 39.5815 37.426 39.25V36.75C37.426 36.4185 37.2755 36.1005 37.0075 35.8661C36.7396 35.6317 36.3762 35.5 35.9973 35.5ZM37.426 13H23.1387V9.25H26.7105C26.9 9.25 27.0817 9.18415 27.2157 9.06694C27.3496 8.94973 27.4249 8.79076 27.4249 8.625V4.875C27.4249 4.70924 27.3496 4.55027 27.2157 4.43306C27.0817 4.31585 26.9 4.25 26.7105 4.25H23.1387V1.125C23.1387 0.95924 23.0634 0.800269 22.9295 0.683058C22.7955 0.565848 22.6138 0.5 22.4243 0.5H18.1382C17.9487 0.5 17.767 0.565848 17.633 0.683058C17.4991 0.800269 17.4238 0.95924 17.4238 1.125V4.25H13.852C13.6625 4.25 13.4808 4.31585 13.3468 4.43306C13.2129 4.55027 13.1376 4.70924 13.1376 4.875V8.625C13.1376 8.79076 13.2129 8.94973 13.3468 9.06694C13.4808 9.18415 13.6625 9.25 13.852 9.25H17.4238V13H3.13649C2.6885 13.0003 2.24687 13.0928 1.84725 13.2699C1.44762 13.4471 1.10121 13.7039 0.835957 14.0198C0.570708 14.3356 0.394061 14.7016 0.320275 15.0882C0.246489 15.4748 0.277631 15.8712 0.411188 16.2453L6.93691 33H33.6256L40.1513 16.2453C40.2849 15.8712 40.316 15.4748 40.2422 15.0882C40.1684 14.7016 39.9918 14.3356 39.7265 14.0198C39.4613 13.7039 39.1149 13.4471 38.7153 13.2699C38.3156 13.0928 37.874 13.0003 37.426 13Z" fill="#E0B973"/>
</svg>
