<svg width="20" height="21" viewBox="0 0 20 21" fill="none" xmlns="http://www.w3.org/2000/svg">
<path d="M6 5.5V1.5M14 5.5V1.5M5 9.5H15M3 19.5H17C17.5304 19.5 18.0391 19.2893 18.4142 18.9142C18.7893 18.5391 19 18.0304 19 17.5V5.5C19 4.96957 18.7893 4.46086 18.4142 4.08579C18.0391 3.71071 17.5304 3.5 17 3.5H3C2.46957 3.5 1.96086 3.71071 1.58579 4.08579C1.21071 4.46086 1 4.96957 1 5.5V17.5C1 18.0304 1.21071 18.5391 1.58579 18.9142C1.96086 19.2893 2.46957 19.5 3 19.5Z" stroke="#59587E" stroke-width="2" stroke-linecap="round" stroke-linejoin="round"/>
</svg>
