<svg width="40" height="40" viewBox="0 0 40 40" fill="none" xmlns="http://www.w3.org/2000/svg">
<path d="M35.716 35H4.28397C3.90505 35 3.54164 35.1317 3.27371 35.3661C3.00577 35.6005 2.85524 35.9185 2.85524 36.25V38.75C2.85524 39.0815 3.00577 39.3995 3.27371 39.6339C3.54164 39.8683 3.90505 40 4.28397 40H35.716C36.095 40 36.4584 39.8683 36.7263 39.6339C36.9942 39.3995 37.1448 39.0815 37.1448 38.75V36.25C37.1448 35.9185 36.9942 35.6005 36.7263 35.3661C36.4584 35.1317 36.095 35 35.716 35ZM37.1448 12.5H22.8575V8.75H26.4293C26.6187 8.75 26.8005 8.68415 26.9344 8.56694C27.0684 8.44973 27.1437 8.29076 27.1437 8.125V4.375C27.1437 4.20924 27.0684 4.05027 26.9344 3.93306C26.8005 3.81585 26.6187 3.75 26.4293 3.75H22.8575V0.625C22.8575 0.45924 22.7822 0.300269 22.6482 0.183058C22.5143 0.065848 22.3326 0 22.1431 0L17.8569 0C17.6674 0 17.4857 0.065848 17.3518 0.183058C17.2178 0.300269 17.1425 0.45924 17.1425 0.625V3.75H13.5707C13.3813 3.75 13.1996 3.81585 13.0656 3.93306C12.9316 4.05027 12.8564 4.20924 12.8564 4.375V8.125C12.8564 8.29076 12.9316 8.44973 13.0656 8.56694C13.1996 8.68415 13.3813 8.75 13.5707 8.75H17.1425V12.5H2.85524C2.40725 12.5003 1.96562 12.5928 1.566 12.7699C1.16637 12.9471 0.819955 13.2039 0.554707 13.5198C0.289458 13.8356 0.112811 14.2016 0.0390249 14.5882C-0.0347611 14.9748 -0.00361872 15.3712 0.129938 15.7453L6.65566 32.5H33.3443L39.8701 15.7453C40.0036 15.3712 40.0348 14.9748 39.961 14.5882C39.8872 14.2016 39.7105 13.8356 39.4453 13.5198C39.18 13.2039 38.8336 12.9471 38.434 12.7699C38.0344 12.5928 37.5928 12.5003 37.1448 12.5Z" fill="#E0B973"/>
</svg>
