<svg width="24" height="22" viewBox="0 0 24 22" fill="none" xmlns="http://www.w3.org/2000/svg">
<path d="M18.4343 21.0007C18.2764 21.0013 18.1224 20.9521 17.9942 20.8601L11.9656 16.4895L5.93696 20.8601C5.80817 20.9535 5.653 21.0035 5.49389 21.003C5.33479 21.0024 5.17998 20.9512 5.05187 20.8569C4.92376 20.7625 4.82897 20.6299 4.78121 20.4781C4.73344 20.3263 4.73519 20.1633 4.78618 20.0126L7.13743 13.0484L1.04368 8.86947C0.911689 8.77905 0.812067 8.64879 0.759373 8.49772C0.70668 8.34666 0.703676 8.1827 0.750801 8.0298C0.797927 7.87691 0.892711 7.74309 1.02131 7.6479C1.1499 7.55271 1.30557 7.50114 1.46556 7.50072H8.98337L11.2521 0.518684C11.301 0.367945 11.3964 0.236559 11.5245 0.143376C11.6527 0.0501921 11.8071 0 11.9656 0C12.124 0 12.2784 0.0501921 12.4066 0.143376C12.5348 0.236559 12.6301 0.367945 12.679 0.518684L14.9477 7.50306H22.4656C22.6258 7.50298 22.7818 7.55419 22.9107 7.6492C23.0397 7.74421 23.1349 7.87802 23.1823 8.03103C23.2297 8.18404 23.2269 8.34822 23.1743 8.49952C23.1216 8.65081 23.0219 8.78128 22.8898 8.87181L16.7937 13.0484L19.1435 20.0107C19.1816 20.1234 19.1923 20.2436 19.1748 20.3613C19.1572 20.479 19.1119 20.5908 19.0427 20.6875C18.9734 20.7842 18.8821 20.8631 18.7763 20.9175C18.6705 20.972 18.5533 21.0005 18.4343 21.0007Z" fill="#FFC107"/>
</svg>
