<svg width="42" height="32" viewBox="0 0 42 32" fill="none" xmlns="http://www.w3.org/2000/svg">
<path d="M39.227 16H6.6658V6.03571C6.6658 4.81474 7.81143 3.82143 9.21962 3.82143C10.1255 3.82143 10.9221 4.2328 11.3756 4.85107C10.0594 6.59531 10.2035 8.97352 11.9213 10.5968C11.588 10.9229 11.6004 11.4213 11.9605 11.7336L12.8634 12.5164C13.2374 12.8407 13.8438 12.8407 14.2178 12.5164L21.8019 5.94078C22.1759 5.61652 22.1759 5.09077 21.8019 4.76644L20.899 3.98356C20.5389 3.67134 19.964 3.66068 19.5879 3.94958C18.1554 2.80998 16.2125 2.46677 14.466 2.88638C13.3122 1.44571 11.3913 0.5 9.21962 0.5C5.69918 0.5 2.83507 2.98332 2.83507 6.03571V16H2.19661C1.13877 16 0.28125 16.7435 0.28125 17.6607V18.7679C0.28125 19.6851 1.13877 20.4286 2.19661 20.4286H2.83507V22.6429C2.83507 24.6101 3.82164 26.3773 5.38889 27.5937V29.8393C5.38889 30.7565 6.24641 31.5 7.30425 31.5H8.58116C9.639 31.5 10.4965 30.7565 10.4965 29.8393V29.2857H30.9271V29.8393C30.9271 30.7565 31.7846 31.5 32.8424 31.5H34.1194C35.1772 31.5 36.0347 30.7565 36.0347 29.8393V27.5937C37.602 26.3773 38.5885 24.6101 38.5885 22.6429V20.4286H39.227C40.2848 20.4286 41.1424 19.6851 41.1424 18.7679V17.6607C41.1424 16.7435 40.2848 16 39.227 16Z" fill="#E0B973"/>
</svg>
