<svg width="41" height="31" viewBox="0 0 41 31" fill="none" xmlns="http://www.w3.org/2000/svg">
<path d="M38.9457 15.5H6.38455V5.53571C6.38455 4.31474 7.53018 3.32143 8.93837 3.32143C9.84426 3.32143 10.6408 3.7328 11.0943 4.35107C9.77818 6.09531 9.92223 8.47352 11.6401 10.0968C11.3068 10.4229 11.3192 10.9213 11.6793 11.2336L12.5822 12.0164C12.9562 12.3407 13.5625 12.3407 13.9366 12.0164L21.5206 5.44078C21.8946 5.11652 21.8946 4.59077 21.5206 4.26644L20.6177 3.48356C20.2576 3.17134 19.6828 3.16069 19.3066 3.44958C17.8742 2.30998 15.9313 1.96677 14.1848 2.38638C13.0309 0.945708 11.1101 0 8.93837 0C5.41793 0 2.55382 2.48332 2.55382 5.53571V15.5H1.91536C0.857525 15.5 0 16.2435 0 17.1607V18.2679C0 19.1851 0.857525 19.9286 1.91536 19.9286H2.55382V22.1429C2.55382 24.1101 3.54039 25.8773 5.10764 27.0937V29.3393C5.10764 30.2565 5.96516 31 7.023 31H8.29991C9.35775 31 10.2153 30.2565 10.2153 29.3393V28.7857H30.6458V29.3393C30.6458 30.2565 31.5034 31 32.5612 31H33.8381C34.8959 31 35.7535 30.2565 35.7535 29.3393V27.0937C37.3207 25.8773 38.3073 24.1101 38.3073 22.1429V19.9286H38.9457C40.0036 19.9286 40.8611 19.1851 40.8611 18.2679V17.1607C40.8611 16.2435 40.0036 15.5 38.9457 15.5Z" fill="#E0B973"/>
</svg>
