<svg width="21" height="21" viewBox="0 0 21 21" fill="none" xmlns="http://www.w3.org/2000/svg">
<path d="M6.5 5.5V1.5M14.5 5.5V1.5M5.5 9.5H15.5M3.5 19.5H17.5C18.0304 19.5 18.5391 19.2893 18.9142 18.9142C19.2893 18.5391 19.5 18.0304 19.5 17.5V5.5C19.5 4.96957 19.2893 4.46086 18.9142 4.08579C18.5391 3.71071 18.0304 3.5 17.5 3.5H3.5C2.96957 3.5 2.46086 3.71071 2.08579 4.08579C1.71071 4.46086 1.5 4.96957 1.5 5.5V17.5C1.5 18.0304 1.71071 18.5391 2.08579 18.9142C2.46086 19.2893 2.96957 19.5 3.5 19.5Z" stroke="#59587E" stroke-width="2" stroke-linecap="round" stroke-linejoin="round"/>
</svg>
