<svg width="40" height="25" viewBox="0 0 40 25" fill="none" xmlns="http://www.w3.org/2000/svg">
<path d="M11 12.5C13.7569 12.5 16 10.1634 16 7.29167C16 4.41992 13.7569 2.08333 11 2.08333C8.24312 2.08333 6 4.41992 6 7.29167C6 10.1634 8.24312 12.5 11 12.5ZM33 4.16667H19C18.4475 4.16667 18 4.63281 18 5.20833V14.5833H4V1.04167C4 0.466146 3.5525 0 3 0H1C0.4475 0 0 0.466146 0 1.04167V23.9583C0 24.5339 0.4475 25 1 25H3C3.5525 25 4 24.5339 4 23.9583V20.8333H36V23.9583C36 24.5339 36.4475 25 37 25H39C39.5525 25 40 24.5339 40 23.9583V11.4583C40 7.43099 36.8662 4.16667 33 4.16667Z" fill="#E0B973"/>
</svg>
