<svg width="41" height="26" viewBox="0 0 41 26" fill="none" xmlns="http://www.w3.org/2000/svg">
<path d="M11.2812 13C14.0381 13 16.2812 10.6634 16.2812 7.79167C16.2812 4.91992 14.0381 2.58333 11.2812 2.58333C8.52437 2.58333 6.28125 4.91992 6.28125 7.79167C6.28125 10.6634 8.52437 13 11.2812 13ZM33.2812 4.66667H19.2812C18.7288 4.66667 18.2812 5.13281 18.2812 5.70833V15.0833H4.28125V1.54167C4.28125 0.966146 3.83375 0.5 3.28125 0.5H1.28125C0.72875 0.5 0.28125 0.966146 0.28125 1.54167V24.4583C0.28125 25.0339 0.72875 25.5 1.28125 25.5H3.28125C3.83375 25.5 4.28125 25.0339 4.28125 24.4583V21.3333H36.2812V24.4583C36.2812 25.0339 36.7287 25.5 37.2812 25.5H39.2812C39.8338 25.5 40.2812 25.0339 40.2812 24.4583V11.9583C40.2812 7.93099 37.1475 4.66667 33.2812 4.66667Z" fill="#E0B973"/>
</svg>
