<svg width="41" height="41" viewBox="0 0 41 41" fill="none" xmlns="http://www.w3.org/2000/svg">
<path d="M20.2812 9.25C21.1464 9.25 21.9923 8.99341 22.7118 8.51268C23.4312 8.03195 23.992 7.34867 24.3231 6.54924C24.6543 5.74982 24.7409 4.87015 24.5721 4.02148C24.4033 3.17282 23.9866 2.39326 23.3747 1.78141C22.7629 1.16956 21.9833 0.752877 21.1347 0.584066C20.286 0.415256 19.4063 0.501896 18.6069 0.833029C17.8075 1.16416 17.1242 1.72492 16.6435 2.44438C16.1627 3.16385 15.9062 4.00971 15.9062 4.875C15.9062 6.03532 16.3671 7.14812 17.1876 7.96859C18.008 8.78907 19.1208 9.25 20.2812 9.25ZM34.0312 35.5H6.53115C6.19963 35.5 5.88169 35.6317 5.64727 35.8661C5.41285 36.1005 5.28115 36.4185 5.28115 36.75V39.25C5.28115 39.5815 5.41285 39.8995 5.64727 40.1339C5.88169 40.3683 6.19963 40.5 6.53115 40.5H34.0312C34.3627 40.5 34.6806 40.3683 34.915 40.1339C35.1495 39.8995 35.2812 39.5815 35.2812 39.25V36.75C35.2812 36.4185 35.1495 36.1005 34.915 35.8661C34.6806 35.6317 34.3627 35.5 34.0312 35.5ZM39.7241 14.8875L37.4968 13.6438C36.9155 13.2531 36.1757 13.4516 35.7554 14.0094C35.3367 14.5699 34.7683 15.0009 34.1155 15.2528C33.4628 15.5048 32.7523 15.5674 32.0655 15.4336C30.2577 15.0984 29.0312 13.3852 29.0312 11.5469C29.0312 11.2692 28.9209 11.003 28.7245 10.8066C28.5282 10.6103 28.2619 10.5 27.9843 10.5H24.9554C24.4866 10.5 24.0483 10.8125 23.9507 11.2742C23.7734 12.1161 23.312 12.8715 22.6439 13.4136C21.9758 13.9557 21.1415 14.2515 20.2812 14.2515C19.4208 14.2515 18.5866 13.9557 17.9184 13.4136C17.2503 12.8715 16.7889 12.1161 16.6116 11.2742C16.514 10.8117 16.0788 10.5 15.6069 10.5H12.578C12.3004 10.5 12.0341 10.6103 11.8378 10.8066C11.6414 11.003 11.5312 11.2692 11.5312 11.5469C11.5312 13.5539 10.0468 15.3555 8.04131 15.4914C7.41817 15.5353 6.79402 15.4213 6.22671 15.1597C5.6594 14.8982 5.16729 14.4977 4.796 13.9953C4.3835 13.4414 3.64522 13.257 3.07022 13.6406L0.838184 14.8906C0.584592 15.0596 0.401448 15.3153 0.323184 15.6098C0.24492 15.9043 0.276926 16.2173 0.413184 16.4898L8.4249 33H32.1374L40.1491 16.4867C40.2854 16.2142 40.3174 15.9012 40.2391 15.6067C40.1609 15.3122 39.9777 15.0565 39.7241 14.8875Z" fill="#E0B973"/>
</svg>
