<svg width="41" height="25" viewBox="0 0 41 25" fill="none" xmlns="http://www.w3.org/2000/svg">
<path d="M11.275 12.5C14.1008 12.5 16.4 10.1634 16.4 7.29167C16.4 4.41992 14.1008 2.08333 11.275 2.08333C8.4492 2.08333 6.15 4.41992 6.15 7.29167C6.15 10.1634 8.4492 12.5 11.275 12.5ZM33.825 4.16667H19.475C18.9087 4.16667 18.45 4.63281 18.45 5.20833V14.5833H4.1V1.04167C4.1 0.466146 3.64131 0 3.075 0H1.025C0.458687 0 0 0.466146 0 1.04167V23.9583C0 24.5339 0.458687 25 1.025 25H3.075C3.64131 25 4.1 24.5339 4.1 23.9583V20.8333H36.9V23.9583C36.9 24.5339 37.3587 25 37.925 25H39.975C40.5413 25 41 24.5339 41 23.9583V11.4583C41 7.43099 37.7879 4.16667 33.825 4.16667Z" fill="#E0B973"/>
</svg>
