<svg width="40" height="40" viewBox="0 0 40 40" fill="none" xmlns="http://www.w3.org/2000/svg">
<path d="M19.9999 8.75C20.8652 8.75 21.7111 8.49341 22.4305 8.01268C23.15 7.53195 23.7107 6.84867 24.0419 6.04924C24.373 5.24982 24.4597 4.37015 24.2908 3.52148C24.122 2.67282 23.7054 1.89326 23.0935 1.28141C22.4816 0.669555 21.7021 0.252877 20.8534 0.0840664C20.0048 -0.084744 19.1251 0.00189565 18.3257 0.333029C17.5262 0.664162 16.843 1.22492 16.3622 1.94438C15.8815 2.66385 15.6249 3.50971 15.6249 4.375C15.6249 5.53532 16.0858 6.64812 16.9063 7.46859C17.7268 8.28907 18.8396 8.75 19.9999 8.75ZM33.7499 35H6.2499C5.91838 35 5.60044 35.1317 5.36602 35.3661C5.1316 35.6005 4.9999 35.9185 4.9999 36.25V38.75C4.9999 39.0815 5.1316 39.3995 5.36602 39.6339C5.60044 39.8683 5.91838 40 6.2499 40H33.7499C34.0814 40 34.3994 39.8683 34.6338 39.6339C34.8682 39.3995 34.9999 39.0815 34.9999 38.75V36.25C34.9999 35.9185 34.8682 35.6005 34.6338 35.3661C34.3994 35.1317 34.0814 35 33.7499 35ZM39.4429 14.3875L37.2155 13.1438C36.6343 12.7531 35.8944 12.9516 35.4741 13.5094C35.0554 14.0699 34.487 14.5009 33.8343 14.7528C33.1816 15.0048 32.471 15.0674 31.7843 14.9336C29.9765 14.5984 28.7499 12.8852 28.7499 11.0469C28.7499 10.7692 28.6396 10.503 28.4433 10.3066C28.247 10.1103 27.9807 10 27.703 10H24.6741C24.2054 10 23.7671 10.3125 23.6694 10.7742C23.4922 11.6161 23.0308 12.3715 22.3626 12.9136C21.6945 13.4557 20.8603 13.7515 19.9999 13.7515C19.1395 13.7515 18.3053 13.4557 17.6372 12.9136C16.9691 12.3715 16.5077 11.6161 16.3304 10.7742C16.2327 10.3117 15.7976 10 15.3257 10H12.2968C12.0191 10 11.7529 10.1103 11.5565 10.3066C11.3602 10.503 11.2499 10.7692 11.2499 11.0469C11.2499 13.0539 9.76553 14.8555 7.76006 14.9914C7.13692 15.0353 6.51277 14.9213 5.94546 14.6597C5.37815 14.3982 4.88604 13.9977 4.51475 13.4953C4.10225 12.9414 3.36397 12.757 2.78897 13.1406L0.556934 14.3906C0.303342 14.5596 0.120198 14.8153 0.041934 15.1098C-0.0363303 15.4043 -0.00432449 15.7173 0.131934 15.9898L8.14365 32.5H31.8562L39.8679 15.9867C40.0041 15.7142 40.0361 15.4012 39.9579 15.1067C39.8796 14.8122 39.6965 14.5565 39.4429 14.3875Z" fill="#E0B973"/>
</svg>
