<svg width="42" height="26" viewBox="0 0 42 26" fill="none" xmlns="http://www.w3.org/2000/svg">
<path d="M11.5562 13C14.382 13 16.6812 10.6634 16.6812 7.79167C16.6812 4.91992 14.382 2.58333 11.5562 2.58333C8.73045 2.58333 6.43125 4.91992 6.43125 7.79167C6.43125 10.6634 8.73045 13 11.5562 13ZM34.1063 4.66667H19.7563C19.1899 4.66667 18.7312 5.13281 18.7312 5.70833V15.0833H4.38125V1.54167C4.38125 0.966146 3.92256 0.5 3.35625 0.5H1.30625C0.739937 0.5 0.28125 0.966146 0.28125 1.54167V24.4583C0.28125 25.0339 0.739937 25.5 1.30625 25.5H3.35625C3.92256 25.5 4.38125 25.0339 4.38125 24.4583V21.3333H37.1812V24.4583C37.1812 25.0339 37.6399 25.5 38.2062 25.5H40.2562C40.8226 25.5 41.2812 25.0339 41.2812 24.4583V11.9583C41.2812 7.93099 38.0692 4.66667 34.1063 4.66667Z" fill="#E0B973"/>
</svg>
